<?xml version="1.0" encoding="UTF-8"?>
<svg width="350.28601" height="350.28601" xmlns="http://www.w3.org/2000/svg" xmlns:svg="http://www.w3.org/2000/svg">

 <metadata id="metadata2416">image/svg+xmlUniversal information symbol2009-07-28Sarah A. Morriganopenclipart.org</metadata>
 <g>
  <title>Layer 1</title>
  <g id="layer1">
   <g id="g2516">
    <g fill="none" stroke="#000000" stroke-width="12" stroke-linejoin="round" id="g2500">
     <path d="m344.285992,175.143c0,93.367 -75.776,169.143 -169.143,169.143c-93.3666,0 -169.143,-75.776 -169.143,-169.143c0,-93.3666 75.7764,-169.143 169.143,-169.143c93.367,0 169.143,75.7764 169.143,169.143z" id="path2502"/>
    </g>
    <g fill="#000000" fill-rule="nonzero" stroke-width="19.851" id="g2504">
     <path d="m142.094994,74.586298c0,-8.4609 3.217,-15.6777 9.651,-21.6504c6.434,-5.9726 14.142,-8.9589 23.122,-8.9599c9.115,0.001 16.89,2.9873 23.324,8.9599c6.434,5.9727 9.651,13.1895 9.652,21.6504c-0.001,8.3379 -3.218,15.5547 -9.652,21.6514c-6.434,5.9727 -14.209,8.9587 -23.324,8.9587c-8.98,0 -16.688,-2.986 -23.122,-8.9587c-6.434,-6.0967 -9.651,-13.3135 -9.651,-21.6514zm62.933,57.3011c0,0 0,176.1946 0,176.1946c0,0 -59.716,0 -59.716,0c0,0 0,-176.1946 0,-176.1946c0,0 59.716,0 59.716,0" id="path2506"/>
    </g>
   </g>
  </g>
 </g>
</svg>